# xmcd CD database file
#
# Track frame offsets:
#	150
#	17722
#	41182
#	56136
#	75217
#	88126
#	109539
#	125649
#	150927
#
# Disc length: 2052 seconds
#
# Revision: 0
# Processed by: cddbd v1.5PL3 Copyright (c) Steve Scherf et al.
# Submitted via: CDex 1.51
#
DISCID=66080209
DTITLE=Five Point Plan - Five Point Plan
DYEAR=1999
DGENRE=Jazz
TTITLE0=Live Today
TTITLE1=It Don't Mean Nothin'
TTITLE2=Push Comes To Shove
TTITLE3=You Just Don't Know
TTITLE4=It's Allright
TTITLE5=Angel
TTITLE6=Everything I Need
TTITLE7=You Drink Confusion
TTITLE8=Five Point Planet of The Apes
EXTD=YEAR: 1999
EXTT0=
EXTT1=
EXTT2=
EXTT3=
EXTT4=
EXTT5=
EXTT6=
EXTT7=
EXTT8=
PLAYORDER=
